<svg width="16" height="16" viewBox="0 0 16 16" fill="none" xmlns="http://www.w3.org/2000/svg">
<path d="M2.41432 5.03563L2.41431 5.03565L2.41712 5.0384L7.76712 10.2634L8.00114 10.4919L8.23406 10.2623L13.5841 4.98729L13.5841 4.98729L13.5857 4.98563C13.6806 4.8908 13.8195 4.8908 13.9143 4.98563C14.0089 5.08017 14.0091 5.21858 13.9152 5.31338C13.9149 5.31366 13.9146 5.31394 13.9143 5.31422L8.1664 10.9622L8.16639 10.9622L8.16432 10.9642C8.06801 11.0605 8.02315 11.0666 8.00002 11.0666C7.9411 11.0666 7.89005 11.0522 7.82028 10.999L2.0849 5.36339C1.9909 5.26859 1.99118 5.13018 2.08573 5.03563C2.18055 4.9408 2.3195 4.9408 2.41432 5.03563Z" fill="#6677A2" stroke="#6677A2" stroke-width="0.666667"/>
</svg>
