<svg width="16" height="16" viewBox="0 0 16 16" fill="none" xmlns="http://www.w3.org/2000/svg">
<path d="M8.23406 5.73771L8.00058 5.50751L7.76656 5.73716L2.41656 10.9872L2.41655 10.9871L2.41432 10.9894C2.3195 11.0842 2.18055 11.0842 2.08573 10.9894C1.99117 10.8948 1.9909 10.7564 2.08491 10.6616L7.83365 5.01283L7.83366 5.01284L7.83573 5.01078C7.93055 4.91595 8.0695 4.91595 8.16432 5.01078L8.16431 5.01078L8.1664 5.01283L13.9143 10.6608C13.9146 10.6611 13.9149 10.6613 13.9152 10.6616C14.0091 10.7564 14.0089 10.8948 13.9143 10.9894C13.8648 11.0389 13.796 11.0667 13.75 11.0667C13.6912 11.0667 13.6402 11.0523 13.5705 10.9993L8.23406 5.73771Z" fill="#445275" stroke="#445275" stroke-width="0.666667"/>
</svg>
